<svg width="95" height="96" viewBox="0 0 95 96" fill="none" xmlns="http://www.w3.org/2000/svg">
<path d="M47.5 0.75C21.6486 0.75 0.6875 21.907 0.6875 48C0.6875 74.093 21.6486 95.25 47.5 95.25C73.3514 95.25 94.3125 74.093 94.3125 48C94.3125 21.907 73.3514 0.75 47.5 0.75ZM69.9972 36.3668C70.0285 36.8625 70.0285 37.3793 70.0285 37.8855C70.0285 53.3684 58.3463 71.2031 36.9985 71.2031C30.4155 71.2031 24.3132 69.273 19.1722 65.9508C20.1126 66.0563 21.0112 66.0984 21.9726 66.0984C27.4062 66.0984 32.4009 64.2422 36.382 61.0992C31.2828 60.9938 26.9986 57.6188 25.5357 52.9781C27.3226 53.2418 28.9317 53.2418 30.7708 52.7672C28.1452 52.2288 25.7852 50.7895 24.0918 48.6938C22.3984 46.5981 21.4761 43.9754 21.4814 41.2711V41.1234C23.0175 41.9988 24.8252 42.5367 26.7165 42.6105C25.1266 41.541 23.8227 40.0921 22.9204 38.3921C22.0182 36.6922 21.5454 34.7938 21.5441 32.8652C21.5441 30.682 22.1084 28.6887 23.122 26.959C26.0363 30.5801 29.6729 33.5417 33.7955 35.6514C37.9181 37.761 42.4343 38.9714 47.0507 39.2039C45.4102 31.241 51.3035 24.7969 58.3881 24.7969C61.7318 24.7969 64.7412 26.2102 66.8624 28.4883C69.4852 27.9926 71.993 27.0012 74.2291 25.6723C73.3618 28.3828 71.5437 30.6715 69.1299 32.1164C71.4705 31.8633 73.7275 31.2094 75.8174 30.2918C74.2396 32.6332 72.2646 34.7109 69.9972 36.3668V36.3668Z" fill="url(#paint0_linear_1_10)"/>
<defs>
<linearGradient id="paint0_linear_1_10" x1="0.6875" y1="0.75" x2="95.1834" y2="94.3709" gradientUnits="userSpaceOnUse">
<stop stop-color="#52E5E7"/>
<stop offset="1" stop-color="#130CB7"/>
</linearGradient>
</defs>
</svg>
